<svg width="24" height="24" viewBox="0 0 24 24" fill="none" xmlns="http://www.w3.org/2000/svg">
<path d="M4.34634 2.87301L6.01224 1.20711C6.40277 0.816582 7.03593 0.816582 7.42646 1.20711L10.8543 4.635C11.2449 5.02552 11.2449 5.65869 10.8543 6.04921L8.53572 8.36784C8.17392 8.72964 8.08422 9.28237 8.31305 9.74003C9.63586 12.3856 11.7811 14.5309 14.4267 15.8537C14.8843 16.0825 15.4371 15.9928 15.7989 15.631L18.1175 13.3124C18.508 12.9218 19.1412 12.9218 19.5317 13.3124L22.9596 16.7403C23.3501 17.1308 23.3501 17.764 22.9596 18.1545L21.2937 19.8204C19.1824 21.9317 15.8398 22.1693 13.4511 20.3777L10.5584 18.2083C8.81492 16.9006 7.26609 15.3518 5.95845 13.6083L3.78898 10.7156C1.99744 8.32693 2.23499 4.98436 4.34634 2.87301Z" fill="#1EAB5F"/>
</svg>
